<svg xmlns="http://www.w3.org/2000/svg" width="24.25" height="24" viewBox="0 0 24.25 24">
  <defs>
    <style>
      .cls-1 {
        fill-rule: evenodd;
      }
    </style>
  </defs>
  <path id="Attachment_Paper_Clip_attach_attachment_clip_office_" data-name="Attachment [Paper Clip,attach,attachment,clip,office]" class="cls-1" d="M1048.22,1424.76a6.1,6.1,0,0,0-8.57,0l-12.13,12.01a5.951,5.951,0,0,0,0,8.47,6.1,6.1,0,0,0,8.57,0l8.21-8.12a3.5,3.5,0,0,0,0-4.95,3.574,3.574,0,0,0-5,0l-8.57,8.48,0.72,0.71,8.56-8.48a2.547,2.547,0,0,1,3.57,0,2.487,2.487,0,0,1,0,3.53l-8.21,8.13a5.095,5.095,0,0,1-7.14,0,4.985,4.985,0,0,1,0-7.07l12.14-12.01a5.095,5.095,0,0,1,7.14,0,4.962,4.962,0,0,1,0,7.07l-0.18.17,0.71,0.71,0.18-.18A5.928,5.928,0,0,0,1048.22,1424.76Z" transform="translate(-1025.75 -1423)"/>
</svg>
